REM DIRINDEX 1\2,1\3,1\4,1\6,1\5\7,1\5\8
REM DIRNAME cjc114,folder01,folder02,folder03,folder04,folder05,folder06,folder07
TITLE ""
FILE "DB4500_5th_6C_39.mp3" MP3
  TRACK 01 AUDIO
    TITLE "0:"
    INDEX 01 00:00:00
  TRACK 02 AUDIO
    TITLE "2:cjc114_4656"
    INDEX 01 00:00:03
  TRACK 03 AUDIO
    TITLE "0:"
    INDEX 01 00:01:03
  TRACK 04 AUDIO
    TITLE "3:cjc114_4657"
    INDEX 01 00:01:21
  TRACK 05 AUDIO
    TITLE "0:"
    INDEX 01 00:02:22
  TRACK 06 AUDIO
    TITLE "4:cjc114_4658"
    INDEX 01 00:02:40
  TRACK 07 AUDIO
    TITLE "0:"
    INDEX 01 00:05:46
  TRACK 08 AUDIO
    TITLE "2:cjc114_4659"
    INDEX 01 00:06:08
  TRACK 09 AUDIO
    TITLE "0:"
    INDEX 01 00:07:09
  TRACK 10 AUDIO
    TITLE "3:cjc114_4660"
    INDEX 01 00:07:23
  TRACK 11 AUDIO
    TITLE "0:"
    INDEX 01 00:08:23
  TRACK 12 AUDIO
    TITLE "4:cjc114_4661"
    INDEX 01 00:08:36
  TRACK 13 AUDIO
    TITLE "0:"
    INDEX 01 00:10:61
  TRACK 14 AUDIO
    TITLE "2:cjc114_4662"
    INDEX 01 00:11:25
  TRACK 15 AUDIO
    TITLE "0:"
    INDEX 01 00:12:34
  TRACK 16 AUDIO
    TITLE "3:cjc114_4663"
    INDEX 01 00:12:48
  TRACK 17 AUDIO
    TITLE "0:"
    INDEX 01 00:14:09
  TRACK 18 AUDIO
    TITLE "4:cjc114_4664"
    INDEX 01 00:14:23
  TRACK 19 AUDIO
    TITLE "0:"
    INDEX 01 00:17:41
  TRACK 20 AUDIO
    TITLE "2:cjc114_4665"
    INDEX 01 00:18:03
  TRACK 21 AUDIO
    TITLE "0:"
    INDEX 01 00:19:15
  TRACK 22 AUDIO
    TITLE "3:cjc114_4666"
    INDEX 01 00:19:26
  TRACK 23 AUDIO
    TITLE "0:"
    INDEX 01 00:20:10
  TRACK 24 AUDIO
    TITLE "4:cjc114_4667"
    INDEX 01 00:20:26
  TRACK 25 AUDIO
    TITLE "0:"
    INDEX 01 00:24:16
  TRACK 26 AUDIO
    TITLE "2:cjc114_4668"
    INDEX 01 00:24:45
  TRACK 27 AUDIO
    TITLE "0:"
    INDEX 01 00:25:50
  TRACK 28 AUDIO
    TITLE "3:cjc114_4669"
    INDEX 01 00:25:72
  TRACK 29 AUDIO
    TITLE "0:"
    INDEX 01 00:27:30
  TRACK 30 AUDIO
    TITLE "4:cjc114_4670"
    INDEX 01 00:27:49
  TRACK 31 AUDIO
    TITLE "0:"
    INDEX 01 00:31:00
  TRACK 32 AUDIO
    TITLE "2:cjc114_4671"
    INDEX 01 00:31:43
  TRACK 33 AUDIO
    TITLE "0:"
    INDEX 01 00:33:62
  TRACK 34 AUDIO
    TITLE "3:cjc114_4672"
    INDEX 01 00:34:08
  TRACK 35 AUDIO
    TITLE "0:"
    INDEX 01 00:35:45
  TRACK 36 AUDIO
    TITLE "4:cjc114_4673"
    INDEX 01 00:35:63
  TRACK 37 AUDIO
    TITLE "0:"
    INDEX 01 00:39:23
  TRACK 38 AUDIO
    TITLE "2:cjc114_4674"
    INDEX 01 00:39:66
  TRACK 39 AUDIO
    TITLE "0:"
    INDEX 01 00:41:02
  TRACK 40 AUDIO
    TITLE "3:cjc114_4675"
    INDEX 01 00:41:24
  TRACK 41 AUDIO
    TITLE "0:"
    INDEX 01 00:42:45
  TRACK 42 AUDIO
    TITLE "4:cjc114_4676"
    INDEX 01 00:42:63
  TRACK 43 AUDIO
    TITLE "0:"
    INDEX 01 00:45:20
  TRACK 44 AUDIO
    TITLE "2:cjc114_4677"
    INDEX 01 00:45:67
  TRACK 45 AUDIO
    TITLE "0:"
    INDEX 01 00:47:03
  TRACK 46 AUDIO
    TITLE "3:cjc114_4678"
    INDEX 01 00:47:27
  TRACK 47 AUDIO
    TITLE "0:"
    INDEX 01 00:48:40
  TRACK 48 AUDIO
    TITLE "4:cjc114_4679"
    INDEX 01 00:48:61
  TRACK 49 AUDIO
    TITLE "0:"
    INDEX 01 00:51:07
  TRACK 50 AUDIO
    TITLE "2:cjc114_4680"
    INDEX 01 00:51:58
  TRACK 51 AUDIO
    TITLE "0:"
    INDEX 01 00:52:57
  TRACK 52 AUDIO
    TITLE "3:cjc114_4681"
    INDEX 01 00:53:04
  TRACK 53 AUDIO
    TITLE "0:"
    INDEX 01 00:54:09
  TRACK 54 AUDIO
    TITLE "4:cjc114_4682"
    INDEX 01 00:54:29
  TRACK 55 AUDIO
    TITLE "0:"
    INDEX 01 00:56:59
  TRACK 56 AUDIO
    TITLE "4:cjc114_4683"
    INDEX 01 00:57:25
  TRACK 57 AUDIO
    TITLE "0:"
    INDEX 01 01:00:37
  TRACK 58 AUDIO
    TITLE "2:cjc114_4684"
    INDEX 01 01:01:09
  TRACK 59 AUDIO
    TITLE "0:"
    INDEX 01 01:02:18
  TRACK 60 AUDIO
    TITLE "3:cjc114_4685"
    INDEX 01 01:02:36
  TRACK 61 AUDIO
    TITLE "0:"
    INDEX 01 01:04:09
  TRACK 62 AUDIO
    TITLE "4:cjc114_4686"
    INDEX 01 01:04:31
  TRACK 63 AUDIO
    TITLE "0:"
    INDEX 01 01:06:67
  TRACK 64 AUDIO
    TITLE "2:cjc114_4687"
    INDEX 01 01:07:35
  TRACK 65 AUDIO
    TITLE "0:"
    INDEX 01 01:08:38
  TRACK 66 AUDIO
    TITLE "3:cjc114_4688"
    INDEX 01 01:08:58
  TRACK 67 AUDIO
    TITLE "0:"
    INDEX 01 01:12:28
  TRACK 68 AUDIO
    TITLE "4:cjc114_4689"
    INDEX 01 01:12:46
  TRACK 69 AUDIO
    TITLE "0:"
    INDEX 01 01:15:70
  TRACK 70 AUDIO
    TITLE "2:cjc114_4690"
    INDEX 01 01:16:42
  TRACK 71 AUDIO
    TITLE "0:"
    INDEX 01 01:17:45
  TRACK 72 AUDIO
    TITLE "3:cjc114_4691"
    INDEX 01 01:17:65
  TRACK 73 AUDIO
    TITLE "0:"
    INDEX 01 01:19:13
  TRACK 74 AUDIO
    TITLE "4:cjc114_4692"
    INDEX 01 01:19:32
  TRACK 75 AUDIO
    TITLE "0:"
    INDEX 01 01:21:49
  TRACK 76 AUDIO
    TITLE "2:cjc114_4693"
    INDEX 01 01:22:19
  TRACK 77 AUDIO
    TITLE "0:"
    INDEX 01 01:23:20
  TRACK 78 AUDIO
    TITLE "3:cjc114_4694"
    INDEX 01 01:23:40
  TRACK 79 AUDIO
    TITLE "0:"
    INDEX 01 01:24:61
  TRACK 80 AUDIO
    TITLE "4:cjc114_4695"
    INDEX 01 01:25:11
  TRACK 81 AUDIO
    TITLE "0:"
    INDEX 01 01:28:12
  TRACK 82 AUDIO
    TITLE "2:cjc114_4696"
    INDEX 01 01:28:57
  TRACK 83 AUDIO
    TITLE "0:"
    INDEX 01 01:29:58
  TRACK 84 AUDIO
    TITLE "3:cjc114_4697"
    INDEX 01 01:30:07
  TRACK 85 AUDIO
    TITLE "0:"
    INDEX 01 01:31:24
  TRACK 86 AUDIO
    TITLE "4:cjc114_4698"
    INDEX 01 01:31:41
  TRACK 87 AUDIO
    TITLE "0:"
    INDEX 01 01:36:29
